<?xml version="1.0" encoding="UTF-8"?>
<svg id="Layer_1" data-name="Layer 1" xmlns="http://www.w3.org/2000/svg" viewBox="0 0 516.48 449.08">
  <defs>
    <style>
      .cls-1 {
        fill: #231e62;
      }

      .cls-2 {
        fill: #fff;
      }

      .cls-3 {
        fill: #706b9f;
      }
    </style>
  </defs>
  <g>
    <path class="cls-1" d="M241.66,403.19l-.96.96c-.08.3.09.68,0,.96l-.96,1.92c-.09.3.1.68,0,.96l-.96,1.92c-1.5,11.75-15.86,26.71-26.54,31.53-35.31,15.95-93.74-.71-111.86-36.16-25.29-1.8-52.88-19.64-57.01-46.17-.67-4.28.38-13.81-.9-16.38-.72-1.45-7.78-3.93-10.02-5.34-15.78-9.95-22.18-25.38-20.14-43.96.28-2.55,2.65-8.04,2.42-9.73-.13-.98-9.39-11.37-11.33-16.11-5.54-13.51-5.47-42.94,8.89-50.95,4.24-2.36,11.72.1,12.43-4.93s-3.56-4.85-6.27-7.14c-7.05-5.94-6.93-16.75-6.12-25.3,1.38-14.53,10.76-30.19,24.59-35.87,4.45-1.83,17.21-2.99,18.32-6.65,2.79-9.15-12.09-4.03-13.23-5.13-4.96-24.3,3.85-51.9,28.51-61.13,3.93-1.47,18.73-3.89,19.95-5.01,1.39-1.27,2.03-12.07,3.3-15.89,7.88-23.65,37.77-35.84,60.98-34.97,2.62.1,6.96,1.9,9.26,1.4,2.47-.54,4.44-4.73,6.67-6.62,21.91-18.56,66.95-8.81,71.5,22.42,3.24,119.26.42,239.03,1.43,358.48-.81,3.82-.52,9.48-1.97,12.91Z"/>
    <g>
      <path class="cls-3" d="M239.74,407.02l.96-1.92c-.35,1.05-.93,1.82-.96,1.92Z"/>
      <path class="cls-3" d="M238.78,409.9c.1-.8,0-1.68.96-1.92-.23.66.1,1.63-.96,1.92Z"/>
      <path class="cls-3" d="M240.7,404.15c.12-.45.52-.8.96-.96-.17.4-.61.71-.96.96Z"/>
      <path class="cls-2" d="M166.78,316.85c-.21-.3-4.83-2.68-6.2-3.89-9-7.92-20.49-22.4-13.83-34.87,1.25-2.34,2.83-4.42,5.63-4.99,6.61-1.33,4.31,6.75,4.91,10.52,4.09,25.86,31.93,24.58,48.78,36.65,7.14,5.11,26.23,25.68,17.42,34.51-6.8,6.81-13.41-11.36-16.93-15.8-4.2-5.29-16.14-14.52-22.96-14.53-5.9-.01-25.57,13.73-33.36,14.69-18.34,17.31-13.31,49.92,15.13,52.52,5.05.46,13.87-2.41,16.09,2.16,2.81,5.81-4.85,9.33-9.47,10.22-21.28,4.08-43.08-11.84-44.55-33.47-9.42,4.52-17.51,7.09-28.23,5.67-6.1-.81-25.31-10.27-23.47-17.47,2.21-8.63,17.98,3,23.62,3.88,15.7,2.46,28.1-4.84,32.88-19.91-10.1-.67-18.94-.55-28.33-4.79-14.93-6.74-31.15-23.84-30.22-41.28-20.47,1.7-43.34-13.66-41.29-35.98.34-3.73,1.56-8.66,6.21-8.16,4.05.44,5.54,12.58,8.01,16.99,3.63,6.48,10.91,12.03,18.37,13.3s18.38-2.14,20.94,7.86c3.28,12.8.03,17.34,11.74,27.6,16.92,14.84,39.33,11.36,59.09,4.34,1.83-.65,11.55-3.59,10.04-5.77Z"/>
      <path class="cls-2" d="M95.12,137.06c2.8,2.83,12.58,8.52,16.45,8.55,4.7.03,10.39-14.69,17.81-9.68,5.17,3.49-5.44,15.44-7.24,19.71-6.16,14.65-3.05,30.57,5.44,43.5,20.15,30.71,62.81,13.11,86.66,44.84,4.55,6.05,14.78,30.17,7.83,35.52-7.96,6.13-10.82-13.02-12.58-17.34-13.17-32.29-46.57-22.22-70.84-35.7-2.61-1.45-7.59-6.3-9.83-6.52-1.6-.16-18.05,6-20.58,7.2-18.56,8.74-17.12,35.15,1.9,42.22,5.63,2.09,23.46-.92,16.76,9.06-4.94,7.36-18.71,5.16-25.7,1.79-18.6-8.98-24.04-33.42-13.13-50.67-17.14-.59-37.59-14.4-36.53-33.14.25-4.39,3-12.99,8.7-9.58,1.75,1.05,2.62,9.64,3.66,12.65,4.38,12.69,18.68,18.53,31.35,17.57,3.29-.25,20.79-4.54,22.15-6.67,1.2-1.88-5.21-10.76-6.47-13.77-5.38-12.87-2.98-23.67-4.14-37.12-5.76-4.81-13.72-6.25-19.25-11.47-10.02-9.47-15.41-26.1-9.25-39.07,2.5-5.27,11.32-14.47,17.72-12.62,7.75,2.24-3.67,10.85-5.45,14.33-4.4,8.56-2.14,19.63,4.57,26.43Z"/>
      <path class="cls-2" d="M164.86,97.1c-1.13-14.17,4.51-27.97,16.59-35.71,3.78-2.42,19.28-9.95,19.94-2.13.37,4.37-8.3,7.19-11.48,9.63-6.21,4.75-11.28,13.06-11.65,21-.59,12.55,7.98,16.61,13.29,26.12,11.67,20.87,5.11,51.28-16.45,62.82-3.63,1.94-14.18,5.88-15.07-.7-.77-5.7,10.44-9.19,14.47-13.33,11.42-11.76,11.73-34.58.93-46.79-7.46-8.43-19.34-9.42-28.7-14.77-22.62-12.93-23.7-45.03-3.44-60.8,3.58-2.79,11.34-7.49,15.81-5.3,6.7,3.28-6.26,9.91-8.67,12.43-15.42,16.08-7.24,43.16,14.44,47.53Z"/>
    </g>
  </g>
  <g>
    <path class="cls-3" d="M296.38,408.46c.17.52,6.67,5.46,8.19,7.17,1.96,2.22,2.85,4.73,5.22,7.26,4.32,4.61,10.96,10.89,17.6,9.09.43-.12,3.86-5.18,6.12-6.57,12.59-7.75,25.75,8.7,15.72,19.55-4.62,4.99-12.35,5.47-17.67,1.28-2.1-1.65-1.9-4.21-3.7-5-3.85-1.69-7.29.79-11.01-.38s-6.71-5.98-10.38-7.76c-14.29,20.08-40.84.35-25.86-19.31,1.1-1.45,3.25-2.05,3.79-2.93,1.22-1.99,1.14-42,.53-46.59-.7-5.28-9.29-9.32-12.58-13.33-2.15-82.21-.24-165.16-.96-247.65l.96-2.88c4.09-5.06,19.32-15.51,21.63-20.6,1.01-2.23.97-20.42-.44-21.59-.97-.8-4-1.08-5.69-1.99-35.44-19.23-7.67-68.04,25.74-52.59,24.81,11.47,18.13,48.53-7.46,54.25-1.42,7.28.74,15.37-.1,22.44-.9,7.57-17.57,17.11-22.1,23.97v55.17l26.44-25.95c-1.1-8.64-1.25-17.53,7.45-22.22,18.69-10.09,33.92,16.6,17.48,28.03-6.87,4.78-11.11,1.95-18.02,1.89l-33.35,33.13v56.13h16.8l14.68-15.07.68-44.42c27.4-25.22,53.01-52.6,79.66-78.7l.54-25.26c-24.3-7.72-7.91-42.09,13.11-29.61,11.46,6.8,8.37,24.39-3.62,28.62-.31,10.22.95,20.76-.67,30.83l-77.5,77.02-.69,45.36c-2.87,2.4-19.88,21.79-21.4,21.79h-21.6v20.15h36.96c2.97,0,27.32-28.05,32.62-31.68,2.15-9.2-1.27-22.24.7-30.96,1.32-5.87,18.37-17.09,22.19-22.99,1.26-3.32-4.23-12.52-4.18-18.43.14-16.88,17.03-30.98,33.67-27.91,3.02.56,11.05,5.32,11.81,5.17,1.85-.36,14.99-16.3,18.34-18.08.79-1.54.95-16.49.53-18.72-.45-2.39-5.92-4.51-7.16-8.19-6.38-18.95,20.66-25.57,24.97-8.6.85,3.36-.09,6.8-1.82,9.76s-5.68,4.52-6.21,6.27c-1.69,5.55,1.56,18.39-.68,23.31-1.9,4.18-20.79,18.66-21.39,21.74-.27,1.39,3.05,8.83,3.4,11.63,2.07,16.88-14.12,32.5-30.85,30.83-3.76-.38-9.13-3.55-12.37-2.61-1.27.37-18.23,17.19-18.99,18.5-3.2,5.58.91,24.87-1.41,32.18l-36.05,36.89c-3.91,2.83-7.16.56-10.93.51-11.08-.14-22.11.58-33.16.04v24.95h39.84c.48,0,5.19-5.51,6.88-6.56,7.71-4.78,17.32-3.6,22.8,3.77,6.66,8.95.34,14.43,1.97,18.11s12.87,11.1,15.4,15.41c3.79-.23,21.68-23.46,26.11-24.77,7.25-2.15,23.25,1.79,30.34-.38,1.75-.53,3.24-4.01,4.98-5.57,13.66-12.27,34.15,5.44,23.95,21.06-8.37,12.82-26.24,8.26-29.87-5.75-7.11.99-17.14-1.21-23.83.07-4.17.8-19.58,20.04-24.5,23.49v26.39l36.8-.92c5.47-12.36,17.84-19.1,31.15-14.7,2.46.81,7.62,4.3,8.83,3.69,3.16-5.15,18.38-17.12,19.95-21.4,3.08-8.42-2.97-24.04,2.12-32.42,1.46-2.4,10.19-8.95,10.48-10.66.31-1.84-4.92-5.82-1.58-14.02,6.54-16.06,34.16-3.77,23.22,12.65-4.53,6.8-7.84,4.1-12.87,6.33-1.34.59-9.53,9.49-10.06,11.05-2.62,7.76,1.52,23.42-.72,30.94-1.22,4.11-20.95,19.56-24.32,24.69.66,5.61,2.86,9.47,2.02,15.37-3,20.88-29.7,29.33-43.72,12.89-4.12-4.83-4.06-10.03-7.36-14.76l-44.5-.09v-33.1c-4.56-2.82-14.56-15.6-18.27-17.29-2.93-1.34-8.62,2.55-15.85-.43-8.28-3.4-9.21-12.51-10.04-12.51h-39.36v37.9c0,.22-.63.72-.5,1.51.33,2.01,4.79,5.96,6.94,6.45,2.52.57,21.93.55,23.31-.28,2.02-1.21,3.62-7.16,9.06-9.18,18.59-6.91,30.57,16.3,15.97,28.45-1.26,1.05-3.76,1.22-3.96,1.96-.58,2.08-.1,15.35.97,17.21.58,1,15.92,14.34,17.38,15.26,1.18.74,1.93,1.2,3.37,1.43,3.6.57,20.57.7,23.95.06,1.89-.36,5.06-6.9,9.52-8.71,19.41-7.87,25.81,26.29,3.95,25.06-6.7-.38-10.04-6.59-10.79-6.78-8.04-1.95-24.96,2.39-32.52-.86-1.88-.81-17.09-14.43-19.62-16.85-3.15-3.01-7.15-6.01-7.69-10.55s.95-11.55.06-15.21c-.13-.53-3.95-2.09-5.36-3.49s-5.15-8.67-5.72-8.67h-15.84v48.46Z"/>
    <g>
      <path class="cls-2" d="M388.87,166.81c-15.32-13.67,7.64-36.23,22.27-20.82,13.22,13.92-7.71,33.82-22.27,20.82Z"/>
      <path class="cls-2" d="M290.92,40.19c-1.19-.99-3.8-5.25-4.08-6.94-3.43-20.45,25.35-22.56,26.86-5.71,1.07,11.89-13.04,20.79-22.78,12.65Z"/>
      <path class="cls-2" d="M430.12,357.44c11.89-10.01,27.74,11.05,13.06,19.28-12.77,7.16-23.97-10.09-13.06-19.28Z"/>
      <path class="cls-2" d="M338.36,294.95c10.97-2.4,11.37,11.91,4.38,14-10.85,3.25-12.31-12.27-4.38-14Z"/>
      <path class="cls-2" d="M441.08,300.71c10.2-2.27,11.54,12,2.59,13.24-8.41,1.17-11.31-11.3-2.59-13.24Z"/>
      <path class="cls-2" d="M327.71,349.69c9.19-.98,10.36,11.95,2.7,13.21-10.29,1.69-10.39-12.39-2.7-13.21Z"/>
      <path class="cls-2" d="M323.96,119.33c8.68-2.51,12.35,11.51,3.39,13.12-8.4,1.51-10.43-11.09-3.39-13.12Z"/>
      <path class="cls-2" d="M397.86,45.49c11.73-3.46,11.98,14.17.81,12.28-5.79-.98-6-10.74-.81-12.28Z"/>
    </g>
  </g>
  <g>
    <path class="cls-3" d="M490,140.94c-1.02,1.2-5.19,2.84-5.47,3.86-1.97,7.28,2.24,23.47-.71,30.74-.64,1.58-15.26,16.47-17.85,19.1-3.18,3.24-16.35,13.97-16.93,17.14-1.09,5.9,1.15,7.79-3.46,13.81-5.75,7.5-12.36,6.28-20.54,6.34-2.68,3.86-26.71,24.95-26.71,26.84,0,.48,2.83,4.59,4.12,4.34l40.79-.51c10.9-11.82,23.94-22.59,34.62-34.51,1.81-2.03,6.85-7.09,6.55-9.37-.76-5.69-4.53-5.43-1.28-14.13,7.18-19.25,38.46-11.1,32.64,11.52-1.26,4.92-7.74,11.22-12.73,12.23-4.67.95-8.35-2.16-12.31.16l-44.53,43.76-46.45.39c-10.67,22.91-42.76,4.58-28.32-15.63,4.93-6.91,12.38-6.51,19.97-5.9,9.06-8.32,16.93-18.39,26.78-25.6-2.79-8.47-4.91-16.09,2.06-23.35,7.65-7.96,16.42-5.33,25.28-1.53,7.19-10.83,27.09-20.63,28.46-34,.35-3.43.52-19.25-.88-21.16-1.83-2.5-7.41-4-8.5-8.77-2.68-11.69,7.53-22.03,18.99-18.02,8.71,3.05,12.54,15,6.42,22.23Z"/>
    <path class="cls-2" d="M430.52,207.64c13.12-2.9,12.22,17.89-.74,13.77-6.65-2.11-6.1-12.26.74-13.77Z"/>
    <path class="cls-2" d="M379.19,272.44c-6.13-5.78,3.1-17.42,9.86-11.28,7.21,6.56-4,16.8-9.86,11.28Z"/>
  </g>
  <g>
    <path class="cls-3" d="M360.91,71c.21.37,5.09,3.55,6.51,5.48,4.96,6.76,3.96,16.11-2.94,21.04-17.74,12.69-35.8-11.73-19.61-24.4,1.45-1.13,6.11-2.82,6.28-3.53.38-1.56.38-25.01,0-26.54-.27-1.09-10.42-3.26-8.48-13.36,2.35-12.23,21-13.14,22.75-.15,1.31,9.68-3.86,9.02-4.69,13.37-.47,2.46-.52,26.87.19,28.09Z"/>
    <path class="cls-2" d="M352.77,79.04c10.13-2.09,10.45,11.86,2.44,13.11-6.8,1.07-10.31-11.49-2.44-13.11Z"/>
  </g>
</svg>